{
	"asset":{
		"generator":"Khronos glTF Blender I/O v5.0.21",
		"version":"2.0"
	},
	"scene":0,
	"scenes":[
		{
			"name":"Scene",
			"nodes":[
				0
			]
		}
	],
	"nodes":[
		{
			"mesh":0,
			"name":"tripo_node_fe736ea5-5bdd-4f19-83a3-6da10735efd4"
		}
	],
	"materials":[
		{
			"name":"tripo_mat_fe736ea5-5bdd-4f19-83a3-6da10735efd4",
			"pbrMetallicRoughness":{
				"baseColorTexture":{
					"index":0
				},
				"metallicFactor":0,
				"roughnessFactor":0.8999999761581421
			}
		}
	],
	"meshes":[
		{
			"name":"tripo_mesh_fe736ea5-5bdd-4f19-83a3-6da10735efd4",
			"primitives":[
				{
					"attributes":{
						"POSITION":0,
						"NORMAL":1,
						"TEXCOORD_0":2
					},
					"indices":3,
					"material":0
				}
			]
		}
	],
	"textures":[
		{
			"sampler":0,
			"source":0
		}
	],
	"images":[
		{
			"mimeType":"image/jpeg",
			"name":"3dcoinmedallion_basecolor",
			"uri":"3dcoinmedallion_basecolor.jpg"
		}
	],
	"accessors":[
		{
			"bufferView":0,
			"componentType":5126,
			"count":1188583,
			"max":[
				0.0525360107421875,
				0.917816162109375,
				0.476104736328125
			],
			"min":[
				-0.055644989013671875,
				0,
				-0.4732666015625
			],
			"type":"VEC3"
		},
		{
			"bufferView":1,
			"componentType":5126,
			"count":1188583,
			"type":"VEC3"
		},
		{
			"bufferView":2,
			"componentType":5126,
			"count":1188583,
			"type":"VEC2"
		},
		{
			"bufferView":3,
			"componentType":5125,
			"count":1200714,
			"type":"SCALAR"
		}
	],
	"bufferViews":[
		{
			"buffer":0,
			"byteLength":14262996,
			"byteOffset":0,
			"target":34962
		},
		{
			"buffer":0,
			"byteLength":14262996,
			"byteOffset":14262996,
			"target":34962
		},
		{
			"buffer":0,
			"byteLength":9508664,
			"byteOffset":28525992,
			"target":34962
		},
		{
			"buffer":0,
			"byteLength":4802856,
			"byteOffset":38034656,
			"target":34963
		}
	],
	"samplers":[
		{
			"magFilter":9729,
			"minFilter":9987
		}
	],
	"buffers":[
		{
			"byteLength":42837512,
			"uri":"Untitled.bin"
		}
	]
}
