{
	"asset":{
		"generator":"Khronos glTF Blender I/O v5.0.21",
		"version":"2.0"
	},
	"scene":0,
	"scenes":[
		{
			"name":"Scene",
			"nodes":[
				0
			]
		}
	],
	"nodes":[
		{
			"mesh":0,
			"name":"Cylinder",
			"rotation":[
				0.70710688829422,
				0,
				0,
				0.7071066498756409
			],
			"scale":[
				1,
				0.07761657983064651,
				1
			]
		}
	],
	"materials":[
		{
			"doubleSided":true,
			"name":"Material.002",
			"pbrMetallicRoughness":{
				"baseColorTexture":{
					"index":0
				},
				"metallicFactor":0.07975462079048157,
				"roughnessFactor":0.4907975196838379
			}
		}
	],
	"meshes":[
		{
			"name":"Cylinder.003",
			"primitives":[
				{
					"attributes":{
						"POSITION":0,
						"NORMAL":1,
						"TEXCOORD_0":2
					},
					"indices":3,
					"material":0
				}
			]
		}
	],
	"textures":[
		{
			"sampler":0,
			"source":0
		}
	],
	"images":[
		{
			"mimeType":"image/png",
			"name":"Varnothsava2026",
			"uri":"Varnothsava2026.png"
		}
	],
	"accessors":[
		{
			"bufferView":0,
			"componentType":5126,
			"count":2702,
			"max":[
				1,
				-0.9999999403953552,
				1
			],
			"min":[
				-1,
				-2.586091995239258,
				-1
			],
			"type":"VEC3"
		},
		{
			"bufferView":1,
			"componentType":5126,
			"count":2702,
			"type":"VEC3"
		},
		{
			"bufferView":2,
			"componentType":5126,
			"count":2702,
			"type":"VEC2"
		},
		{
			"bufferView":3,
			"componentType":5123,
			"count":13056,
			"type":"SCALAR"
		}
	],
	"bufferViews":[
		{
			"buffer":0,
			"byteLength":32424,
			"byteOffset":0,
			"target":34962
		},
		{
			"buffer":0,
			"byteLength":32424,
			"byteOffset":32424,
			"target":34962
		},
		{
			"buffer":0,
			"byteLength":21616,
			"byteOffset":64848,
			"target":34962
		},
		{
			"buffer":0,
			"byteLength":26112,
			"byteOffset":86464,
			"target":34963
		}
	],
	"samplers":[
		{
			"magFilter":9729,
			"minFilter":9987
		}
	],
	"buffers":[
		{
			"byteLength":112576,
			"uri":"coin1.bin"
		}
	]
}
